<?xml version="1.0" encoding="UTF-8" standalone="no"?>
<!DOCTYPE svg PUBLIC "-//W3C//DTD SVG 1.1//EN" "http://www.w3.org/Graphics/SVG/1.1/DTD/svg11.dtd">
<!-- Created with Vectornator (http://vectornator.io/) -->
<svg height="100%" stroke-miterlimit="10" style="fill-rule:nonzero;clip-rule:evenodd;stroke-linecap:round;stroke-linejoin:round;" version="1.1" viewBox="0 0 1024 1024" width="100%" xml:space="preserve" xmlns="http://www.w3.org/2000/svg" xmlns:vectornator="http://vectornator.io" xmlns:xlink="http://www.w3.org/1999/xlink">
<defs>
<clipPath id="TextBounds">
<rect height="827.433" width="414.091" x="60" y="98.2835"/>
</clipPath>
</defs>
<clipPath id="ArtboardFrame">
<rect height="1024" width="1024" x="0" y="0"/>
</clipPath>
<g clip-path="url(#ArtboardFrame)" id="Layer-1" vectornator:layerName="Layer 1">
<path d="M204.8-2.84217e-14L819.2-2.84217e-14C932.308-2.84217e-14 1024 91.6921 1024 204.8L1024 819.2C1024 932.308 932.308 1024 819.2 1024L204.8 1024C91.6921 1024 0 932.308 0 819.2L0 204.8C0 91.6921 91.6921-2.84217e-14 204.8-2.84217e-14Z" fill="#303030" fill-rule="evenodd" opacity="1" stroke="none"/>
</g>
<g id="Layer-2" vectornator:layerName="Layer 2">
<g opacity="1">
<path clip-path="url(#TextBounds)" d="M357.901 780.109C341.261 780.109 326.534 776.864 313.721 770.374C300.908 763.885 290.841 754.316 283.519 741.67C276.198 729.023 272.537 713.881 272.537 696.242C272.537 691.916 272.703 687.506 273.036 683.013C273.369 678.52 273.868 673.944 274.534 669.285C247.244 670.949 221.951 667.787 198.654 659.8C175.358 651.813 155.057 639.915 137.751 624.107C120.445 608.299 106.967 589.163 97.3156 566.698C87.6643 544.234 82.8386 519.523 82.8386 492.566C82.8386 467.939 86.9987 444.892 95.3188 423.426C103.639 401.961 115.62 383.074 131.262 366.767C146.903 350.459 165.79 337.73 187.921 328.577C210.053 319.425 234.597 314.849 261.554 314.849C288.511 314.849 312.972 319.342 334.937 328.328C356.902 337.314 375.706 349.877 391.348 366.018C406.989 382.159 419.053 400.713 427.54 421.679C436.026 442.646 440.27 465.277 440.27 489.571L440.27 690.751C440.27 708.722 436.942 724.447 430.286 737.926C423.63 751.404 414.228 761.805 402.081 769.126C389.933 776.448 375.207 780.109 357.901 780.109ZM354.906 737.177C365.888 737.177 374.874 733.267 381.863 725.446C388.852 717.625 392.346 706.393 392.346 691.749L392.346 572.938C375.373 583.921 361.894 595.07 351.91 606.385C341.926 617.701 334.521 628.683 329.696 639.333C324.87 649.983 321.708 659.8 320.211 668.786C318.713 677.772 317.964 685.26 317.964 691.25C317.964 700.901 319.712 709.138 323.206 715.961C326.7 722.783 331.277 728.025 336.934 731.686C342.592 735.347 348.582 737.177 354.906 737.177ZM261.554 628.35C266.879 628.35 271.871 628.101 276.53 627.601C281.19 627.102 286.182 626.187 291.507 624.856C296.166 613.541 302.739 602.059 311.225 590.411C319.712 578.763 330.528 567.198 343.673 555.716C356.819 544.234 373.043 533.501 392.346 523.517L392.346 489.571C392.346 470.601 389.101 453.046 382.611 436.905C376.122 420.764 366.97 406.786 355.155 394.972C343.341 383.157 329.446 373.839 313.472 367.016C297.497 360.194 280.191 356.783 261.554 356.783C242.584 356.783 225.195 360.194 209.387 367.016C193.579 373.839 179.768 383.407 167.953 395.721C156.139 408.034 146.987 422.428 140.497 438.902C134.007 455.376 130.762 473.264 130.762 492.566C130.762 511.869 134.007 529.757 140.497 546.231C146.987 562.705 156.139 577.099 167.953 589.412C179.768 601.726 193.579 611.294 209.387 618.117C225.195 624.939 242.584 628.35 261.554 628.35Z" fill="#ffffff" fill-rule="evenodd" opacity="1" stroke="#ffffff" stroke-linecap="round" stroke-linejoin="round" stroke-width="6"/>
<g opacity="1">
<path d="M622.848 671.299C600.51 671.299 579.619 667.17 560.177 658.913C540.734 650.656 523.636 639.136 508.881 624.353C494.127 609.57 482.613 592.523 474.34 573.211C466.066 553.9 461.93 533.191 461.93 511.083C461.93 489.241 465.997 468.665 474.133 449.354C482.268 430.042 493.713 413.062 508.468 398.412C523.222 383.762 540.32 372.242 559.763 363.852C579.206 355.461 600.234 351.266 622.848 351.266C642.704 351.266 660.768 354.063 677.039 359.656C693.31 365.25 709.03 374.173 724.198 386.426C726.68 388.29 728.128 390.488 728.541 393.018C728.955 395.549 728.61 397.946 727.507 400.21C726.404 402.474 724.749 404.139 722.543 405.204C721.992 407.335 720.613 408.933 718.406 409.999C716.2 411.064 713.649 411.464 710.753 411.197C707.858 410.931 705.031 409.732 702.273 407.601C691.518 398.545 679.797 391.82 667.111 387.425C654.425 383.03 639.671 380.832 622.848 380.832C604.922 380.832 588.169 384.295 572.587 391.22C557.005 398.146 543.285 407.601 531.427 419.588C519.568 431.574 510.26 445.425 503.504 461.14C496.747 476.855 493.369 493.503 493.369 511.083C493.369 529.195 496.747 546.109 503.504 561.824C510.26 577.54 519.568 591.39 531.427 603.377C543.285 615.363 557.005 624.752 572.587 631.544C588.169 638.337 604.922 641.733 622.848 641.733C638.016 641.733 652.357 639.335 665.87 634.541C679.383 629.746 692.207 622.821 704.342 613.765C707.651 611.101 711.167 610.036 714.89 610.568C718.613 611.101 721.854 612.699 724.611 615.363C727.369 618.027 728.748 621.489 728.748 625.751C728.748 627.882 728.403 629.813 727.714 631.544C727.025 633.276 725.853 635.074 724.198 636.938C710.133 649.457 694.413 658.314 677.039 663.508C659.665 668.702 641.601 671.299 622.848 671.299Z" fill="#ffffff" fill-rule="evenodd" opacity="1" stroke="#ffffff" stroke-linecap="round" stroke-linejoin="round" stroke-width="15"/>
<path d="M829.504 672.734C807.166 672.734 786.275 668.605 766.833 660.348C747.39 652.091 730.292 640.571 715.537 625.788C700.783 611.005 689.269 593.958 680.996 574.646C672.722 555.335 668.585 534.626 668.585 512.518C668.585 490.676 672.653 470.1 680.789 450.789C688.924 431.477 700.369 414.497 715.124 399.847C729.878 385.197 746.976 373.677 766.419 365.287C785.862 356.896 806.89 352.701 829.504 352.701C849.36 352.701 867.424 355.498 883.695 361.092C894.101 364.669 902.31 369.633 912.265 375.934C915.712 378.115 916.352 378.755 920.266 381.737C922.373 383.342 925.216 386.457 927.17 388.266C928.346 389.357 932.685 394.327 934.006 396.939C935.229 399.358 935.182 398.563 935.733 399.639C937.016 402.146 935.266 399.381 934.163 401.645C933.06 403.909 931.405 405.574 929.199 406.639C928.647 408.77 927.269 410.368 925.062 411.434C922.856 412.499 912.785 423.709 909.89 423.442C908.941 423.355 907.934 422.465 906.921 419.941C906.645 419.253 906.504 417.836 906.2 417.012C905.525 415.184 904.652 412.071 903.863 410.572C903.197 409.306 902.607 408.448 901.963 407.411C900.516 405.081 899.133 403.111 898.399 402.544C887.644 393.488 886.453 393.255 873.767 388.86C861.081 384.465 846.327 382.267 829.504 382.267C811.578 382.267 794.824 385.73 779.243 392.655C763.661 399.581 749.941 409.037 738.082 421.023C726.224 433.009 716.916 446.86 710.159 462.575C703.403 478.29 700.024 494.938 700.024 512.518C700.024 530.63 703.403 547.544 710.159 563.26C716.916 578.975 726.224 592.826 738.082 604.812C749.941 616.798 763.661 626.187 779.243 632.98C794.824 639.772 811.578 643.168 829.504 643.168C844.672 643.168 859.013 640.771 872.526 635.976C886.039 631.182 898.863 624.256 910.997 615.2C914.307 612.536 917.823 611.471 921.546 612.004C925.269 612.536 928.51 614.134 931.267 616.798C934.025 619.462 935.404 622.924 935.404 627.186C935.404 629.317 935.059 631.248 934.37 632.98C933.68 634.711 932.508 636.509 930.854 638.373C916.789 650.892 901.069 659.749 883.695 664.943C866.321 670.137 848.257 672.734 829.504 672.734Z" fill="#ffffff" fill-rule="evenodd" opacity="1" stroke="#ffffff" stroke-linecap="round" stroke-linejoin="round" stroke-width="15"/>
<path d="M914.279 383.59L919.493 387.346C921.836 388.452 922.825 386.826 924.328 388.16C926.65 390.221 931.02 393.641 933.279 396.38C935.538 399.119 937.245 402.129 937.245 405.952L937.245 498.224C937.245 509.766 930.529 519.123 922.244 519.123L922.244 519.123C913.959 519.123 884.803 504.964 884.803 493.422C884.803 493.422 898.747 490.195 900.928 488.982C903.115 487.766 903.699 487.479 903.699 487.479L905.764 484.443L906.941 482.294C906.941 482.294 907.208 480.731 907.392 477.789C907.502 476.036 907.243 468.694 907.243 468.694L907.243 405.952C907.243 394.41 905.994 383.59 914.279 383.59Z" fill="#ffffff" fill-rule="evenodd" opacity="1" stroke="#ffffff" stroke-linecap="round" stroke-linejoin="round" stroke-width="15"/>
<path d="M933.265 505.141L933.265 505.141C933.29 510.114 933.331 515.265 927.484 518.007C923.59 519.834 914.955 520.184 909.745 520.195L805.569 520.43C792.537 520.459 781.939 513.767 781.897 505.482L781.897 505.482C781.856 497.197 792.386 490.457 805.417 490.428L909.593 490.193C922.625 490.164 933.223 496.857 933.265 505.141Z" fill="#ffffff" fill-rule="evenodd" opacity="1" stroke="#ffffff" stroke-linecap="round" stroke-linejoin="round" stroke-width="15"/>
</g>
</g>
</g>
<g id="Layer-3" vectornator:layerName="Layer 3">
<path d="M519.408 731.521L884.112 731.521C893.859 731.521 901.76 737.671 901.76 745.257L901.76 745.257C901.76 752.844 893.859 758.994 884.112 758.994L519.408 758.994C509.661 758.994 501.76 752.844 501.76 745.257L501.76 745.257C501.76 737.671 509.661 731.521 519.408 731.521Z" fill="#ffffff" fill-rule="evenodd" opacity="1" stroke="#ffffff" stroke-linecap="round" stroke-linejoin="round" stroke-width="20"/>
</g>
</svg>
