<?xml version="1.0" encoding="UTF-8" standalone="no"?>
<!DOCTYPE svg PUBLIC "-//W3C//DTD SVG 1.1//EN" "http://www.w3.org/Graphics/SVG/1.1/DTD/svg11.dtd">
<!-- Created with Vectornator (http://vectornator.io/) -->
<svg height="100%" stroke-miterlimit="10" style="fill-rule:nonzero;clip-rule:evenodd;stroke-linecap:round;stroke-linejoin:round;" version="1.1" viewBox="0 0 1024 1024" width="100%" xml:space="preserve" xmlns="http://www.w3.org/2000/svg" xmlns:vectornator="http://vectornator.io" xmlns:xlink="http://www.w3.org/1999/xlink">
<defs>
<clipPath id="TextBounds">
<rect height="913.075" width="456.951" x="12" y="55.4625"/>
</clipPath>
</defs>
<g id="Layer-2" vectornator:layerName="Layer 2">
<g opacity="1">
<path clip-path="url(#TextBounds)" d="M340.735 807.655C322.372 807.655 306.121 804.074 291.982 796.913C277.843 789.752 266.734 779.193 258.654 765.238C250.575 751.282 246.535 734.572 246.535 715.108C246.535 710.334 246.719 705.468 247.086 700.51C247.453 695.552 248.004 690.502 248.738 685.361C218.624 687.197 190.713 683.708 165.005 674.894C139.298 666.08 116.896 652.951 97.7987 635.507C78.7018 618.062 63.8281 596.945 53.1779 572.156C42.5276 547.367 37.2025 520.098 37.2025 490.351C37.2025 463.175 41.7931 437.743 50.9744 414.055C60.1556 390.367 73.3766 369.526 90.6374 351.531C107.898 333.535 128.74 319.488 153.162 309.389C177.584 299.289 204.668 294.24 234.416 294.24C264.163 294.24 291.156 299.198 315.394 309.113C339.633 319.029 360.382 332.893 377.643 350.704C394.904 368.516 408.217 388.99 417.582 412.127C426.946 435.264 431.629 460.237 431.629 487.046L431.629 709.048C431.629 728.88 427.956 746.232 420.611 761.106C413.266 775.98 402.892 787.456 389.487 795.536C376.082 803.615 359.832 807.655 340.735 807.655ZM337.429 760.28C349.549 760.28 359.464 755.965 367.177 747.334C374.889 738.704 378.745 726.309 378.745 710.15L378.745 579.042C360.015 591.161 345.142 603.464 334.124 615.951C323.107 628.437 314.935 640.556 309.61 652.308C304.285 664.06 300.796 674.894 299.143 684.81C297.491 694.726 296.665 702.989 296.665 709.599C296.665 720.25 298.593 729.339 302.449 736.868C306.305 744.396 311.355 750.18 317.598 754.22C323.841 758.26 330.452 760.28 337.429 760.28ZM234.416 640.189C240.292 640.189 245.8 639.914 250.942 639.363C256.083 638.812 261.592 637.802 267.468 636.333C272.61 623.846 279.863 611.176 289.228 598.323C298.593 585.469 310.528 572.707 325.035 560.037C339.541 547.367 357.444 535.523 378.745 524.505L378.745 487.046C378.745 466.113 375.164 446.74 368.003 428.929C360.841 411.117 350.742 395.692 337.705 382.655C324.667 369.618 309.335 359.335 291.707 351.806C274.079 344.277 254.982 340.513 234.416 340.513C213.482 340.513 194.294 344.277 176.849 351.806C159.405 359.335 144.164 369.893 131.127 383.481C118.089 397.07 107.99 412.953 100.829 431.132C93.6672 449.311 90.0865 469.051 90.0865 490.351C90.0865 511.652 93.6672 531.391 100.829 549.57C107.99 567.749 118.089 583.633 131.127 597.221C144.164 610.809 159.405 621.368 176.849 628.896C194.294 636.425 213.482 640.189 234.416 640.189Z" fill="#ffffff" fill-rule="evenodd" opacity="1" stroke="#ffffff" stroke-linecap="round" stroke-linejoin="round" stroke-width="6"/>
<g opacity="1">
<path d="M633.105 687.787C608.454 687.787 585.402 683.231 563.947 674.119C542.492 665.007 523.623 652.295 507.342 635.981C491.061 619.668 478.355 600.857 469.225 579.547C460.095 558.237 455.531 535.384 455.531 510.988C455.531 486.885 460.019 464.179 468.997 442.869C477.975 421.559 490.604 402.821 506.886 386.655C523.167 370.489 542.035 357.777 563.49 348.518C584.945 339.259 608.15 334.63 633.105 334.63C655.016 334.63 674.949 337.716 692.905 343.888C710.86 350.061 728.207 359.908 744.944 373.428C747.683 375.486 749.281 377.911 749.738 380.703C750.194 383.496 749.814 386.141 748.596 388.639C747.379 391.138 745.553 392.975 743.118 394.151C742.51 396.502 740.988 398.266 738.554 399.441C736.119 400.617 733.304 401.058 730.109 400.764C726.913 400.47 723.794 399.147 720.751 396.796C708.882 386.802 695.948 379.381 681.949 374.531C667.95 369.681 651.669 367.256 633.105 367.256C613.324 367.256 594.836 371.077 577.641 378.719C560.447 386.361 545.307 396.796 532.221 410.023C519.135 423.25 508.864 438.534 501.408 455.876C493.952 473.218 490.224 491.588 490.224 510.988C490.224 530.975 493.952 549.64 501.408 566.981C508.864 584.323 519.135 599.608 532.221 612.834C545.307 626.061 560.447 636.422 577.641 643.918C594.836 651.413 613.324 655.16 633.105 655.16C649.843 655.16 665.668 652.515 680.58 647.224C695.491 641.934 709.643 634.291 723.033 624.298C726.685 621.358 730.565 620.183 734.673 620.771C738.782 621.358 742.358 623.122 745.401 626.061C748.444 629.001 749.966 632.822 749.966 637.525C749.966 639.876 749.585 642.007 748.825 643.918C748.064 645.828 746.77 647.812 744.944 649.87C729.424 663.684 712.077 673.458 692.905 679.189C673.732 684.921 653.799 687.787 633.105 687.787Z" fill="#ffffff" fill-rule="evenodd" opacity="1" stroke="#ffffff" stroke-linecap="round" stroke-linejoin="round" stroke-width="15"/>
<path d="M861.15 689.37C836.5 689.37 813.447 684.814 791.992 675.703C770.537 666.591 751.669 653.878 735.387 637.565C719.106 621.252 706.4 602.441 697.271 581.131C688.141 559.821 683.576 536.968 683.576 512.571C683.576 488.469 688.065 465.763 697.042 444.453C706.02 423.143 718.649 404.405 734.931 388.239C751.212 372.073 770.081 359.36 791.536 350.102C812.991 340.843 836.195 336.213 861.15 336.213C883.062 336.213 902.995 339.3 920.95 345.472C932.433 349.42 941.492 354.897 952.477 361.85C956.281 364.258 956.987 364.963 961.306 368.254C963.632 370.026 966.769 373.462 968.925 375.459C970.222 376.663 975.011 382.147 976.468 385.03C977.818 387.7 977.766 386.822 978.374 388.01C979.79 390.776 977.859 387.725 976.642 390.223C975.424 392.721 973.598 394.558 971.164 395.734C970.555 398.086 969.034 399.849 966.599 401.025C964.164 402.201 953.051 414.57 949.856 414.276C948.809 414.18 947.698 413.197 946.58 410.413C946.275 409.653 946.12 408.09 945.784 407.18C945.039 405.163 944.077 401.728 943.206 400.074C942.47 398.676 941.82 397.73 941.109 396.586C939.512 394.015 937.986 391.841 937.176 391.215C925.307 381.221 923.993 380.964 909.994 376.114C895.995 371.264 879.714 368.84 861.15 368.84C841.369 368.84 822.881 372.661 805.687 380.303C788.492 387.945 773.352 398.38 760.266 411.606C747.18 424.833 736.909 440.118 729.453 457.459C721.997 474.801 718.269 493.172 718.269 512.571C718.269 532.559 721.997 551.223 729.453 568.565C736.909 585.907 747.18 601.191 760.266 614.418C773.352 627.645 788.492 638.006 805.687 645.501C822.881 652.996 841.369 656.744 861.15 656.744C877.888 656.744 893.713 654.099 908.625 648.808C923.537 643.517 937.688 635.875 951.078 625.881C954.73 622.942 958.61 621.766 962.719 622.354C966.827 622.942 970.403 624.706 973.446 627.645C976.49 630.584 978.011 634.405 978.011 639.108C978.011 641.46 977.631 643.591 976.87 645.501C976.109 647.412 974.816 649.396 972.99 651.453C957.469 665.268 940.123 675.041 920.95 680.773C901.778 686.505 881.844 689.37 861.15 689.37Z" fill="#ffffff" fill-rule="evenodd" opacity="1" stroke="#ffffff" stroke-linecap="round" stroke-linejoin="round" stroke-width="15"/>
<path d="M954.7 370.299L960.453 374.444C963.039 375.664 964.13 373.87 965.789 375.342C968.351 377.617 973.173 381.39 975.666 384.413C978.159 387.435 980.043 390.757 980.043 394.976L980.043 496.798C980.043 509.535 972.631 519.86 963.489 519.86L963.489 519.86C954.347 519.86 922.172 504.236 922.172 491.499C922.172 491.499 937.56 487.938 939.967 486.6C942.381 485.258 943.025 484.941 943.025 484.941L945.304 481.59L946.602 479.219C946.602 479.219 946.896 477.495 947.1 474.248C947.221 472.314 946.935 464.212 946.935 464.212L946.935 394.976C946.935 382.239 945.557 370.299 954.7 370.299Z" fill="#ffffff" fill-rule="evenodd" opacity="1" stroke="#ffffff" stroke-linecap="round" stroke-linejoin="round" stroke-width="15"/>
<path d="M975.65 504.431L975.65 504.431C975.678 509.918 975.723 515.603 969.272 518.629C964.974 520.645 955.446 521.031 949.696 521.044L834.738 521.302C820.357 521.334 808.662 513.949 808.616 504.807L808.616 504.807C808.57 495.665 820.19 488.227 834.57 488.195L949.529 487.936C963.909 487.904 975.604 495.289 975.65 504.431Z" fill="#ffffff" fill-rule="evenodd" opacity="1" stroke="#ffffff" stroke-linecap="round" stroke-linejoin="round" stroke-width="15"/>
</g>
</g>
</g>
</svg>
